<?xml version="1.0" encoding="iso-8859-1"?>
<!-- Uploaded to: SVG Repo, www.svgrepo.com, Generator: SVG Repo Mixer Tools -->
<!DOCTYPE svg PUBLIC "-//W3C//DTD SVG 1.1//EN" "http://www.w3.org/Graphics/SVG/1.1/DTD/svg11.dtd">
<svg stroke="#055555" stroke-width="2" fill="none" version="1.1" id="Capa_1"
	xmlns="http://www.w3.org/2000/svg"
	xmlns:xlink="http://www.w3.org/1999/xlink"
	width="800px" height="800px" viewBox="0 0 198.653 198.653"
	xml:space="preserve">
<g>
	<g>
		<ellipse cx="99.328" cy="16.606" rx="16.83" ry="16.606"/>
		<path d="M170.724,41.736c-2.343-2.343-6.142-2.343-8.484,0l-15.898,15.899c-0.293,0.293-0.691,0.458-1.104,0.458
			c-0.414,0-0.813-0.165-1.105-0.458c-3.714-3.716-15.766-15.771-20.26-20.265c-1.34-1.34-3.147-1.726-4.905-1.726
			c-10.039,0-29.471,0-39.276,0c-1.757,0-3.564,0.386-4.904,1.726c-4.8,4.8-16.594,16.596-20.26,20.262
			c-0.293,0.293-0.69,0.458-1.105,0.458c-0.415,0-0.813-0.165-1.105-0.458l-15.9-15.898c-2.343-2.342-6.143-2.342-8.485,0.001
			c-2.344,2.343-2.344,6.142,0,8.485l21.247,21.248c1.125,1.125,2.651,1.757,4.243,1.757c1.592,0,3.125-0.632,4.251-1.757
			l21.396-21.431l0.182,139.616c0,4.971,4.038,9,9.008,9c4.971,0,9.008-4.029,9.008-9v-67.984h4.12v67.984c0,4.971,4.038,9,9.009,9
			s9.008-4.029,9.008-9l0.185-139.616l21.419,21.431c1.125,1.125,2.644,1.757,4.235,1.757c1.591,0,3.113-0.632,4.238-1.757
			l21.245-21.247C173.069,47.877,173.066,44.079,170.724,41.736z"/>
	</g>
</g>
</svg>
